<svg width="1440" height="1024" viewBox="0 0 1440 1024" fill="none" xmlns="http://www.w3.org/2000/svg">
<rect width="1440" height="1024" fill="white"/>
<ellipse cx="691" cy="935.5" rx="10" ry="8.5" fill="#D9D9D9"/>
<ellipse cx="720" cy="935.5" rx="10" ry="8.5" fill="#D9D9D9"/>
<ellipse cx="749" cy="935.5" rx="10" ry="8.5" fill="#D9D9D9"/>
<path d="M44.0373 99.3472L86.191 77.166L88.9198 124.721L44.0373 99.3472Z" stroke="#DC05FF" stroke-width="4"/>
<path d="M380.603 175.115L424.255 152.145L427.081 201.391L380.603 175.115Z" stroke="#750A7E" stroke-width="3"/>
<path d="M995.474 921.7L1039 907.405L1049.2 952.073L995.474 921.7Z" stroke="#B438C8" stroke-width="3"/>
<path d="M1245.56 224.099L1290.71 200.341L1293.63 251.277L1245.56 224.099Z" stroke="#A727AA" stroke-width="2"/>
<path d="M1334.56 50.0994L1379.71 26.3412L1382.63 77.2773L1334.56 50.0994Z" stroke="#C938D6" stroke-width="2"/>
<path d="M86.5591 878.099L131.71 854.341L134.633 905.277L86.5591 878.099Z" stroke="#CD2BBD" stroke-width="2"/>
<path d="M526.5 894.5C526.5 901.899 518.595 908.5 508 908.5C497.405 908.5 489.5 901.899 489.5 894.5C489.5 887.101 497.405 880.5 508 880.5C518.595 880.5 526.5 887.101 526.5 894.5Z" stroke="#982D8D" stroke-width="3"/>
<path d="M970.5 176.5C970.5 183.899 962.595 190.5 952 190.5C941.405 190.5 933.5 183.899 933.5 176.5C933.5 169.101 941.405 162.5 952 162.5C962.595 162.5 970.5 169.101 970.5 176.5Z" stroke="#942983" stroke-width="3"/>
<path d="M829.5 23.5C829.5 30.8988 821.595 37.5 811 37.5C800.405 37.5 792.5 30.8988 792.5 23.5C792.5 16.1012 800.405 9.5 811 9.5C821.595 9.5 829.5 16.1012 829.5 23.5Z" stroke="#942983" stroke-width="3"/>
<path d="M47 291.5C47 299.286 38.7455 306 28 306C17.2545 306 9 299.286 9 291.5C9 283.714 17.2545 277 28 277C38.7455 277 47 283.714 47 291.5Z" stroke="#F410D0" stroke-width="2"/>
</svg>
