<svg width="164" height="67" viewBox="0 0 164 67" fill="none" xmlns="http://www.w3.org/2000/svg">
<path d="M163.067 13.7636C163.067 32.6492 162.249 60.3074 118.067 60.3074C50.5667 56.5079 16.4267 73.5544 7.06689 64.1076C-8.93221 47.9597 0.0676804 -17.1066 56.5667 4.26547C140.18 35.8943 158.567 -9.5076 163.067 13.7636Z" fill="#FCF3FF"/>
<path d="M159 14.9731C159 32.9121 158.213 59.1839 115.674 59.1839C50.6854 55.5749 17.8155 71.7669 8.80398 62.7936C-6.5999 47.4552 2.06516 -14.3497 56.4622 5.95107C136.965 35.9946 154.667 -7.13163 159 14.9731Z" fill="#9E68B1"/>
<path d="M155 16.0929C155 32.961 154.268 57.6643 114.71 57.6643C54.2743 54.2707 23.7074 69.4961 15.3273 61.0585C1.00264 46.6358 9.0606 -11.4792 59.6463 7.60957C134.509 35.8594 150.971 -4.69207 155 16.0929Z" fill="#FCF3FF"/>
<path d="M20.152 59.3632C18.904 59.3632 17.704 58.8992 16.552 57.9712C15.4 57.0752 14.408 55.5872 13.576 53.5072C13.288 52.7712 13.08 52.0032 12.952 51.2032C12.824 50.4032 12.76 49.6032 12.76 48.8032C12.76 47.4912 12.904 46.1792 13.192 44.8672C13.48 43.5552 13.848 42.3232 14.296 41.1712C14.648 40.3392 15.144 39.4112 15.784 38.3872C16.424 37.3312 17.032 36.4672 17.608 35.7952C17.8 35.6032 18.04 35.3952 18.328 35.1712C18.616 34.9152 18.808 34.7872 18.904 34.7872C18.936 34.7872 18.952 34.8032 18.952 34.8352C18.952 34.9312 18.68 35.3152 18.136 35.9872C16.824 37.5872 15.848 39.4112 15.208 41.4592C14.6 43.4752 14.296 45.4752 14.296 47.4592C14.296 48.6432 14.392 49.7792 14.584 50.8672C14.808 51.9552 15.096 52.9632 15.448 53.8912C16.12 55.5872 16.84 56.8032 17.608 57.5392C18.408 58.2752 19.24 58.6432 20.104 58.6432C21.192 58.6432 22.296 58.1792 23.416 57.2512C24.536 56.3232 25.624 55.0912 26.68 53.5552C27.768 52.0192 28.776 50.3552 29.704 48.5632C30.632 46.7712 31.432 44.9952 32.104 43.2352C32.808 41.4432 33.32 39.8432 33.64 38.4352L34.36 35.4592C34.2 35.4272 34.12 35.3632 34.12 35.2672C34.12 35.1072 34.248 34.9472 34.504 34.7872C34.888 33.0592 35.176 31.3632 35.368 29.6992C35.592 28.0352 35.704 26.4992 35.704 25.0912C35.704 23.5552 35.56 22.2112 35.272 21.0592C35.016 19.8752 34.584 18.9792 33.976 18.3712C33.72 18.1152 33.432 17.9872 33.112 17.9872C32.888 17.9872 32.648 18.0512 32.392 18.1792C32.168 18.3072 31.944 18.4672 31.72 18.6592C31.496 18.8832 31.464 18.8352 31.624 18.5152C31.816 18.1632 32.12 17.7792 32.536 17.3632C32.984 16.9472 33.464 16.7392 33.976 16.7392C34.264 16.7392 34.552 16.8352 34.84 17.0272C35.864 17.7312 36.584 18.8032 37 20.2432C37.448 21.6832 37.672 23.3472 37.672 25.2352C37.672 26.4832 37.592 27.7952 37.432 29.1712C37.272 30.5472 37.048 31.9552 36.76 33.3952C36.824 33.4592 36.872 33.5392 36.904 33.6352C36.968 33.7312 37.032 33.8272 37.096 33.9232C40.968 32.6752 44.072 31.3472 46.408 29.9392C48.776 28.5312 50.488 27.1072 51.544 25.6672C52.632 24.2272 53.176 22.8512 53.176 21.5392C53.176 20.1632 52.664 18.9312 51.64 17.8432C50.616 16.7552 49.208 15.8912 47.416 15.2512C45.624 14.6112 43.56 14.2912 41.224 14.2912C39.048 14.2912 36.792 14.5952 34.456 15.2032C32.344 15.7792 30.328 16.6272 28.408 17.7472C26.52 18.8352 24.824 20.0512 23.32 21.3952C21.848 22.7392 20.648 24.0672 19.72 25.3792C18.824 26.6912 18.312 27.8432 18.184 28.8352C18.12 29.5392 17.992 30.0512 17.8 30.3712C17.64 30.6912 17.48 30.8512 17.32 30.8512C16.84 30.8512 16.6 30.2752 16.6 29.1232C16.6 28.9632 16.6 28.8032 16.6 28.6432C16.632 28.4832 16.664 28.3232 16.696 28.1632C16.888 26.7232 17.528 25.2832 18.616 23.8432C19.736 22.4032 21.144 21.0592 22.84 19.8112C24.568 18.5312 26.456 17.3952 28.504 16.4032C30.552 15.4112 32.6 14.6432 34.648 14.0992C35.96 13.7472 37.24 13.4912 38.488 13.3312C39.768 13.1712 41 13.0912 42.184 13.0912C44.776 13.0912 47.064 13.4432 49.048 14.1472C51.032 14.8512 52.584 15.8112 53.704 17.0272C54.824 18.2112 55.384 19.5712 55.384 21.1072C55.384 22.3872 54.904 23.7472 53.944 25.1872C52.984 26.6272 51.448 28.0672 49.336 29.5072C47.224 30.9472 44.44 32.3392 40.984 33.6832C40.28 33.9392 39.64 34.1632 39.064 34.3552C38.52 34.5472 38.024 34.7232 37.576 34.8832C38.216 36.0352 39.048 37.3792 40.072 38.9152C41.096 40.4512 42.184 42.0032 43.336 43.5712C44.52 45.1392 45.688 46.5632 46.84 47.8432C47.992 49.1232 49.032 50.0992 49.96 50.7712C50.536 51.1872 51.208 51.6032 51.976 52.0192C52.776 52.4672 53.544 52.6912 54.28 52.6912C55.016 52.6912 55.576 52.4832 55.96 52.0672C56.344 51.6832 56.616 51.1872 56.776 50.5792C56.936 49.9712 57.016 49.3632 57.016 48.7552C57.016 46.6752 56.408 44.7552 55.192 42.9952C55.096 42.8352 55.048 42.7392 55.048 42.7072C55.048 42.6112 55.096 42.5632 55.192 42.5632C55.384 42.5632 55.576 42.6912 55.768 42.9472C56.408 43.7152 56.92 44.6112 57.304 45.6352C57.688 46.6592 57.88 47.6832 57.88 48.7072C57.88 50.2752 57.416 51.5872 56.488 52.6432C55.592 53.7312 54.36 54.2752 52.792 54.2752C51.16 54.2752 49.64 53.8272 48.232 52.9312C46.856 52.0352 45.576 50.8512 44.392 49.3792C43.208 47.9072 42.136 46.3232 41.176 44.6272C40.216 42.8992 39.368 41.2032 38.632 39.5392C37.896 37.8752 37.256 36.4032 36.712 35.1232L36.376 35.2192C35.864 37.4272 35.272 39.5712 34.6 41.6512C33.96 43.7312 33.288 45.6192 32.584 47.3152C31.72 49.4272 30.6 51.3952 29.224 53.2192C27.88 55.0752 26.408 56.5632 24.808 57.6832C23.24 58.8032 21.688 59.3632 20.152 59.3632ZM59.4914 48.5992C58.7474 48.5992 58.1354 48.3832 57.6554 47.9512C57.1994 47.5192 57.0194 46.8712 57.1154 46.0072C57.1394 45.6952 57.2114 45.3712 57.3314 45.0352C57.4754 44.6752 57.6314 44.3272 57.7994 43.9912C57.9434 43.6552 58.0874 43.4872 58.2314 43.4872C58.3514 43.4872 58.3634 43.5832 58.2674 43.7752C57.9554 44.4232 57.7994 44.9992 57.7994 45.5032C57.7994 46.0312 57.9794 46.4272 58.3394 46.6912C58.7234 46.9552 59.2154 47.0872 59.8154 47.0872C60.9914 47.0872 62.2874 46.7152 63.7034 45.9712C65.1194 45.2032 66.5834 44.2312 68.0954 43.0552C69.6074 41.8552 71.0594 40.6072 72.4514 39.3112C71.5154 39.2632 70.6394 39.2152 69.8234 39.1672C69.0074 39.1192 68.2874 39.0952 67.6634 39.0952C67.1354 39.0952 66.4994 39.1432 65.7554 39.2392C65.0114 39.3352 64.4354 39.5872 64.0274 39.9952C63.8594 40.1632 63.7034 40.4152 63.5594 40.7512C63.4394 41.0632 63.3794 41.3872 63.3794 41.7232C63.3794 41.8192 63.3794 41.9152 63.3794 42.0112C63.4034 42.0832 63.4274 42.1672 63.4514 42.2632C63.3554 42.2152 63.1754 42.1792 62.9114 42.1552C62.6714 42.1072 62.5154 41.9512 62.4434 41.6872C62.4194 41.6152 62.4074 41.4952 62.4074 41.3272C62.4074 40.9432 62.5514 40.6312 62.8394 40.3912C63.1274 40.1272 63.4754 39.8992 63.8834 39.7072C64.2914 39.5152 64.6634 39.3472 64.9994 39.2032C65.7914 38.8672 66.6074 38.5912 67.4474 38.3752C68.2874 38.1592 69.1394 38.0512 70.0034 38.0512C70.9874 38.0512 72.2114 38.0872 73.6754 38.1592C74.8034 37.0552 75.8474 36.0112 76.8074 35.0272C77.7674 34.0432 78.5474 33.2272 79.1474 32.5792C79.9874 31.6912 80.8754 30.9352 81.8114 30.3112C82.7714 29.6632 83.7434 29.2072 84.7274 28.9432H82.7474C81.9074 28.9432 80.9954 28.9792 80.0114 29.0512C79.0274 29.1232 78.1034 29.2792 77.2394 29.5192C76.3754 29.7592 75.6554 30.1192 75.0794 30.5992C74.7194 30.9112 74.4434 31.2712 74.2514 31.6792C74.0834 32.0632 73.9994 32.4232 73.9994 32.7592C73.9994 33.2152 74.1314 33.5272 74.3954 33.6952C74.4194 33.6952 74.4314 33.7072 74.4314 33.7312C74.4314 33.8032 74.3474 33.8872 74.1794 33.9832C74.0114 34.0552 73.8914 34.0672 73.8194 34.0192C73.5794 33.8512 73.3634 33.5152 73.1714 33.0112C73.0034 32.4832 72.9434 32.0632 72.9914 31.7512C73.1114 31.0072 73.4354 30.4072 73.9634 29.9512C74.5154 29.4712 75.1874 29.0992 75.9794 28.8352C76.7954 28.5712 77.6474 28.3912 78.5354 28.2952C79.4474 28.1992 80.3114 28.1392 81.1274 28.1152C81.9674 28.0912 82.6754 28.0792 83.2514 28.0792H87.1754C87.2234 28.0792 87.2354 28.0912 87.2114 28.1152C87.8114 27.8512 88.4354 27.5872 89.0834 27.3232C89.7554 27.0592 90.3314 26.9272 90.8114 26.9272C90.9314 26.9272 91.0514 26.9632 91.1714 27.0352C91.3154 27.1072 91.3874 27.1792 91.3874 27.2512C91.3874 27.3712 91.1474 27.4312 90.6674 27.4312C90.4274 27.4312 90.1754 27.4792 89.9114 27.5752C89.6714 27.6472 89.3474 27.8992 88.9394 28.3312C88.6034 28.6672 88.1834 29.2072 87.6794 29.9512C87.1754 30.6952 86.6234 31.5712 86.0234 32.5792C85.4234 33.5632 84.8234 34.6192 84.2234 35.7472C83.6234 36.8512 83.0474 37.9432 82.4954 39.0232C81.9434 40.1032 81.4634 41.0992 81.0554 42.0112C81.0074 42.1552 80.8754 42.4912 80.6594 43.0192C80.4434 43.5232 80.2394 44.0872 80.0474 44.7112C79.8554 45.3112 79.7594 45.8512 79.7594 46.3312C79.7594 46.9792 79.9874 47.3032 80.4434 47.3032C80.6594 47.3032 80.8754 47.2552 81.0914 47.1592C81.4034 47.0392 81.7274 46.8592 82.0634 46.6192C82.3994 46.3792 82.7234 46.1032 83.0354 45.7912C83.6594 45.1912 84.1874 44.6152 84.6194 44.0632C85.0514 43.4872 85.3154 43.1392 85.4114 43.0192C85.4834 42.8992 85.5674 42.8392 85.6634 42.8392C85.7594 42.8392 85.8074 42.8992 85.8074 43.0192C85.8074 43.0912 85.7714 43.1872 85.6994 43.3072C85.5314 43.5472 85.2194 43.9672 84.7634 44.5672C84.3074 45.1432 83.7674 45.7312 83.1434 46.3312C82.5434 46.9312 81.8954 47.3872 81.1994 47.6992C80.9834 47.7952 80.7554 47.8672 80.5154 47.9152C80.2754 47.9872 80.0354 48.0232 79.7954 48.0232C79.3154 48.0232 78.8714 47.8552 78.4634 47.5192C78.0794 47.1832 77.8874 46.6312 77.8874 45.8632C77.8874 45.1672 78.0194 44.4232 78.2834 43.6312C78.5714 42.8152 78.8354 42.1552 79.0754 41.6512C79.5554 40.6192 80.1194 39.4672 80.7674 38.1952C81.4394 36.9232 82.1234 35.6512 82.8194 34.3792C83.5394 33.1072 84.1994 31.9552 84.7994 30.9232C85.3994 29.8912 85.8914 29.1232 86.2754 28.6192C85.8914 28.6192 85.3754 28.7752 84.7274 29.0872C84.0794 29.3752 83.3834 29.7712 82.6394 30.2752C81.9194 30.7552 81.2474 31.3192 80.6234 31.9672C79.8794 32.7352 79.0154 33.6712 78.0314 34.7752C77.0714 35.8792 76.0274 37.0312 74.8994 38.2312C75.4514 38.2552 76.0034 38.2792 76.5554 38.3032C77.1074 38.3032 77.6594 38.3032 78.2114 38.3032C78.5954 38.3032 79.0154 38.2672 79.4714 38.1952C79.9514 38.0992 80.3954 37.9552 80.8034 37.7632C80.8034 37.7632 80.7314 37.8952 80.5874 38.1592C80.4674 38.3992 80.2514 38.6512 79.9394 38.9152C79.6514 39.1552 79.2554 39.2992 78.7514 39.3472C78.2954 39.3712 77.8394 39.3952 77.3834 39.4192C76.9274 39.4192 76.4714 39.4192 76.0154 39.4192C75.6314 39.4192 75.2474 39.4192 74.8634 39.4192C74.5034 39.4192 74.1434 39.4072 73.7834 39.3832C72.6794 40.5352 71.5274 41.6632 70.3274 42.7672C69.1274 43.8472 67.9154 44.8312 66.6914 45.7192C65.4674 46.6072 64.2434 47.3032 63.0194 47.8072C61.8194 48.3352 60.6434 48.5992 59.4914 48.5992ZM84.2082 48.4552C84.1122 48.4552 84.0402 48.4312 83.9922 48.3832C83.9202 48.3352 83.9082 48.2992 83.9562 48.2752C84.5082 47.8432 84.9642 47.4112 85.3242 46.9792C85.7082 46.5472 86.0922 45.9952 86.4762 45.3232L86.9802 44.4592C87.4602 43.6432 88.0002 42.7072 88.6002 41.6512C89.2002 40.5952 89.8002 39.5272 90.4002 38.4472C91.0242 37.3672 91.5882 36.3712 92.0922 35.4592C92.6202 34.5472 93.0402 33.8152 93.3522 33.2632C93.6642 32.6872 93.8202 32.3992 93.8202 32.3992C94.4682 31.2712 95.1762 30.4192 95.9442 29.8432C96.7362 29.2432 97.4322 28.8592 98.0322 28.6912C96.2802 28.7152 94.7202 28.8472 93.3522 29.0872C91.9842 29.3272 91.0602 29.8912 90.5802 30.7792C90.4842 30.9472 90.4122 31.1392 90.3642 31.3552C90.3402 31.5472 90.3282 31.7392 90.3282 31.9312C90.3282 32.5552 90.4962 32.9992 90.8322 33.2632C90.8562 33.2872 90.8682 33.3112 90.8682 33.3352C90.8682 33.3832 90.8202 33.4312 90.7242 33.4792C90.6522 33.5272 90.5802 33.5392 90.5082 33.5152C90.2922 33.3952 90.0282 33.1072 89.7162 32.6512C89.4042 32.1712 89.2122 31.7752 89.1402 31.4632C89.0682 31.1752 89.0322 30.9112 89.0322 30.6712C89.0322 30.0232 89.2602 29.5192 89.7162 29.1592C90.1722 28.7992 90.7242 28.5472 91.3722 28.4032C92.0442 28.2592 92.7282 28.1752 93.4242 28.1512C94.1202 28.1272 94.6962 28.1152 95.1522 28.1152H96.5922C97.0722 28.1152 97.5882 28.1152 98.1402 28.1152C98.7162 28.0912 99.1962 28.0432 99.5802 27.9712H99.7242C99.8682 27.9712 99.9762 28.0192 100.048 28.1152C100.12 28.2112 100.156 28.3072 100.156 28.4032C100.156 28.5952 100.072 28.6912 99.9042 28.6912C99.8082 28.6912 99.7242 28.6912 99.6522 28.6912C99.6042 28.6672 99.5322 28.6552 99.4362 28.6552C98.3322 28.6552 97.2282 29.6152 96.1242 31.5352C96.1242 31.5352 95.9922 31.7512 95.7282 32.1832C95.4882 32.5912 95.1762 33.1192 94.7922 33.7672C94.4322 34.4152 94.0482 35.0992 93.6402 35.8192C93.2322 36.5392 92.8722 37.1872 92.5602 37.7632C91.9122 38.9632 91.2162 40.2712 90.4722 41.6872C89.7522 43.0792 89.0082 44.5312 88.2402 46.0432C88.0722 46.3312 87.9282 46.6672 87.8082 47.0512C87.6882 47.4112 87.5082 47.5912 87.2682 47.5912C87.1722 47.5912 87.0522 47.5792 86.9082 47.5552C86.7642 47.5312 86.6082 47.5192 86.4402 47.5192C86.0322 47.5192 85.6602 47.5912 85.3242 47.7352C85.0122 47.8792 84.6882 48.1072 84.3522 48.4192C84.3282 48.4432 84.2802 48.4552 84.2082 48.4552ZM99.9042 48.0952C99.3042 48.0952 98.6922 47.9032 98.0682 47.5192C97.4442 47.1112 96.8082 46.4872 96.1602 45.6472C95.3922 44.6152 94.7442 43.6192 94.2162 42.6592C93.6882 41.6752 93.2562 40.8232 92.9202 40.1032C92.6082 39.3832 92.3682 38.8672 92.2002 38.5552C93.5442 37.3072 94.9242 36.1912 96.3402 35.2072C97.7802 34.2232 99.2082 33.2872 100.624 32.3992C101.584 31.8232 102.616 31.1872 103.72 30.4912C104.824 29.7712 105.94 29.1712 107.068 28.6912C107.86 28.3552 108.628 28.1872 109.372 28.1872C109.708 28.1872 110.044 28.2232 110.38 28.2952C110.716 28.3432 111.04 28.4272 111.352 28.5472C111.592 28.6192 111.868 28.7752 112.18 29.0152C112.492 29.2312 112.624 29.4832 112.576 29.7712C112.576 29.8672 112.528 29.9152 112.432 29.9152C112.312 29.9152 112.204 29.8432 112.108 29.6992C112.012 29.5552 111.868 29.4112 111.676 29.2672C111.484 29.1232 111.184 29.0512 110.776 29.0512C110.248 29.0512 109.66 29.1592 109.012 29.3752C108.388 29.5912 107.836 29.7952 107.356 29.9872C106.396 30.3952 105.388 30.8392 104.332 31.3192C103.276 31.7992 102.28 32.3032 101.344 32.8312C100.504 33.2872 99.6162 33.8152 98.6802 34.4152C97.7442 35.0152 96.8322 35.6272 95.9442 36.2512C95.0802 36.8512 94.3002 37.4032 93.6042 37.9072C93.7482 38.2672 93.9882 38.8072 94.3242 39.5272C94.6602 40.2472 95.1042 41.0632 95.6562 41.9752C96.2082 42.8632 96.8562 43.7632 97.6002 44.6752C98.1522 45.3472 98.6922 45.8392 99.2202 46.1512C99.7722 46.4392 100.288 46.5832 100.768 46.5832C101.416 46.5832 102.016 46.4032 102.568 46.0432C103.144 45.6592 103.684 45.1792 104.188 44.6032C104.716 44.0272 105.208 43.4392 105.664 42.8392C105.784 42.6952 105.868 42.6232 105.916 42.6232C106.012 42.6232 106.06 42.6832 106.06 42.8032C106.06 42.9472 106 43.0912 105.88 43.2352C104.824 44.6992 103.804 45.8752 102.82 46.7632C101.86 47.6512 100.888 48.0952 99.9042 48.0952ZM104.353 48.4552C104.257 48.4552 104.185 48.4312 104.137 48.3832C104.065 48.3352 104.053 48.2992 104.101 48.2752C104.653 47.8432 105.109 47.4112 105.469 46.9792C105.853 46.5472 106.237 45.9952 106.621 45.3232L107.125 44.4592C107.605 43.6432 108.145 42.7072 108.745 41.6512C109.345 40.5952 109.945 39.5272 110.545 38.4472C111.169 37.3672 111.733 36.3712 112.237 35.4592C112.765 34.5472 113.185 33.8152 113.497 33.2632C113.809 32.6872 113.965 32.3992 113.965 32.3992C114.613 31.2712 115.321 30.4192 116.089 29.8432C116.881 29.2432 117.577 28.8592 118.177 28.6912C116.425 28.7152 114.865 28.8472 113.497 29.0872C112.129 29.3272 111.205 29.8912 110.725 30.7792C110.629 30.9472 110.557 31.1392 110.509 31.3552C110.485 31.5472 110.473 31.7392 110.473 31.9312C110.473 32.5552 110.641 32.9992 110.977 33.2632C111.001 33.2872 111.013 33.3112 111.013 33.3352C111.013 33.3832 110.965 33.4312 110.869 33.4792C110.797 33.5272 110.725 33.5392 110.653 33.5152C110.437 33.3952 110.173 33.1072 109.861 32.6512C109.549 32.1712 109.357 31.7752 109.285 31.4632C109.213 31.1752 109.177 30.9112 109.177 30.6712C109.177 30.0232 109.405 29.5192 109.861 29.1592C110.317 28.7992 110.869 28.5472 111.517 28.4032C112.189 28.2592 112.873 28.1752 113.569 28.1512C114.265 28.1272 114.841 28.1152 115.297 28.1152H116.737C117.217 28.1152 117.733 28.1152 118.285 28.1152C118.861 28.0912 119.341 28.0432 119.725 27.9712H119.869C120.013 27.9712 120.121 28.0192 120.193 28.1152C120.265 28.2112 120.301 28.3072 120.301 28.4032C120.301 28.5952 120.217 28.6912 120.049 28.6912C119.953 28.6912 119.869 28.6912 119.797 28.6912C119.749 28.6672 119.677 28.6552 119.581 28.6552C118.477 28.6552 117.373 29.6152 116.269 31.5352C116.269 31.5352 116.137 31.7512 115.873 32.1832C115.633 32.5912 115.321 33.1192 114.937 33.7672C114.577 34.4152 114.193 35.0992 113.785 35.8192C113.377 36.5392 113.017 37.1872 112.705 37.7632C112.057 38.9632 111.361 40.2712 110.617 41.6872C109.897 43.0792 109.153 44.5312 108.385 46.0432C108.217 46.3312 108.073 46.6672 107.953 47.0512C107.833 47.4112 107.653 47.5912 107.413 47.5912C107.317 47.5912 107.197 47.5792 107.053 47.5552C106.909 47.5312 106.753 47.5192 106.585 47.5192C106.177 47.5192 105.805 47.5912 105.469 47.7352C105.157 47.8792 104.833 48.1072 104.497 48.4192C104.473 48.4432 104.425 48.4552 104.353 48.4552ZM120.049 48.0952C119.449 48.0952 118.837 47.9032 118.213 47.5192C117.589 47.1112 116.953 46.4872 116.305 45.6472C115.537 44.6152 114.889 43.6192 114.361 42.6592C113.833 41.6752 113.401 40.8232 113.065 40.1032C112.753 39.3832 112.513 38.8672 112.345 38.5552C113.689 37.3072 115.069 36.1912 116.485 35.2072C117.925 34.2232 119.353 33.2872 120.769 32.3992C121.729 31.8232 122.761 31.1872 123.865 30.4912C124.969 29.7712 126.085 29.1712 127.213 28.6912C128.005 28.3552 128.773 28.1872 129.517 28.1872C129.853 28.1872 130.189 28.2232 130.525 28.2952C130.861 28.3432 131.185 28.4272 131.497 28.5472C131.737 28.6192 132.013 28.7752 132.325 29.0152C132.637 29.2312 132.769 29.4832 132.721 29.7712C132.721 29.8672 132.673 29.9152 132.577 29.9152C132.457 29.9152 132.349 29.8432 132.253 29.6992C132.157 29.5552 132.013 29.4112 131.821 29.2672C131.629 29.1232 131.329 29.0512 130.921 29.0512C130.393 29.0512 129.805 29.1592 129.157 29.3752C128.533 29.5912 127.981 29.7952 127.501 29.9872C126.541 30.3952 125.533 30.8392 124.477 31.3192C123.421 31.7992 122.425 32.3032 121.489 32.8312C120.649 33.2872 119.761 33.8152 118.825 34.4152C117.889 35.0152 116.977 35.6272 116.089 36.2512C115.225 36.8512 114.445 37.4032 113.749 37.9072C113.893 38.2672 114.133 38.8072 114.469 39.5272C114.805 40.2472 115.249 41.0632 115.801 41.9752C116.353 42.8632 117.001 43.7632 117.745 44.6752C118.297 45.3472 118.837 45.8392 119.365 46.1512C119.917 46.4392 120.433 46.5832 120.913 46.5832C121.561 46.5832 122.161 46.4032 122.713 46.0432C123.289 45.6592 123.829 45.1792 124.333 44.6032C124.861 44.0272 125.353 43.4392 125.809 42.8392C125.929 42.6952 126.013 42.6232 126.061 42.6232C126.157 42.6232 126.205 42.6832 126.205 42.8032C126.205 42.9472 126.145 43.0912 126.025 43.2352C124.969 44.6992 123.949 45.8752 122.965 46.7632C122.005 47.6512 121.033 48.0952 120.049 48.0952ZM128.601 48.0592C127.857 48.0592 127.149 47.8552 126.477 47.4472C125.805 47.0152 125.301 46.3672 124.965 45.5032C124.845 45.1912 124.761 44.8672 124.713 44.5312C124.665 44.1712 124.641 43.8232 124.641 43.4872C124.641 43.1512 124.701 42.9832 124.821 42.9832C124.965 42.9832 125.037 43.0792 125.037 43.2712C125.037 44.3992 125.313 45.2512 125.865 45.8272C126.441 46.4032 127.149 46.6912 127.989 46.6912C128.829 46.6912 129.645 46.4512 130.437 45.9712C131.229 45.4912 131.961 44.8792 132.633 44.1352C133.713 42.9352 134.637 41.7232 135.405 40.4992C136.173 39.2512 136.869 37.9792 137.493 36.6832C138.141 35.3632 138.789 33.9952 139.437 32.5792C139.773 31.8592 140.181 31.1872 140.661 30.5632C141.165 29.9152 141.717 29.3992 142.317 29.0152H141.237C140.877 29.0152 140.373 29.0392 139.725 29.0872C139.101 29.1352 138.465 29.2432 137.817 29.4112C137.169 29.5792 136.629 29.8552 136.197 30.2392C135.765 30.6232 135.573 31.1392 135.621 31.7872C135.645 31.9792 135.717 32.2432 135.837 32.5792C135.957 32.8912 136.029 33.0832 136.053 33.1552L135.693 33.4432C135.549 33.1792 135.369 32.8792 135.153 32.5432C134.937 32.1832 134.733 31.8352 134.541 31.4992C134.373 31.1632 134.277 30.9112 134.253 30.7432C134.229 30.5032 134.241 30.1912 134.289 29.8072C134.361 29.4232 134.553 29.0872 134.865 28.7992C135.225 28.4872 135.717 28.2832 136.341 28.1872C136.989 28.0912 137.649 28.0432 138.321 28.0432C138.969 28.0432 139.593 28.0672 140.193 28.1152C140.793 28.1632 141.285 28.1872 141.669 28.1872L147.429 28.1512L146.961 28.6912C146.721 28.6912 146.373 28.7152 145.917 28.7632C145.485 28.7872 145.029 28.8472 144.549 28.9432C143.973 29.0392 143.313 29.3632 142.569 29.9152C141.825 30.4432 141.189 31.1512 140.661 32.0392L140.337 32.5792C139.977 33.3952 139.569 34.3672 139.113 35.4952C138.657 36.6232 138.141 37.8112 137.565 39.0592C137.013 40.3072 136.401 41.5192 135.729 42.6952C135.057 43.8472 134.313 44.8552 133.497 45.7192C132.897 46.3672 132.141 46.9192 131.229 47.3752C130.317 47.8312 129.441 48.0592 128.601 48.0592Z" fill="black"/>
<path d="M93.1826 54.4043V54.7949H90.8047V54.4043H91.7324L94.2715 47.627H94.6572L97.04 54.4043H98.0068V54.7949H95.0039V54.4043H96.0195L95.2871 52.3193H92.9824L92.2061 54.4043H93.1826ZM94.1641 49.1699L93.1338 51.9238H95.1504L94.1836 49.1699H94.1641ZM100.575 54.7949H98.1826V54.4043H98.915V51.0254H98.1826V50.6348H99.7939V51.3916H99.8135C99.8721 51.2646 99.9437 51.1491 100.028 51.0449C100.116 50.9375 100.212 50.8447 100.316 50.7666C100.421 50.6885 100.531 50.6283 100.648 50.5859C100.766 50.5436 100.884 50.5225 101.005 50.5225C101.2 50.5225 101.361 50.5794 101.488 50.6934C101.615 50.8073 101.679 50.9652 101.679 51.167C101.679 51.346 101.63 51.486 101.532 51.5869C101.435 51.6846 101.308 51.7334 101.151 51.7334C100.989 51.7334 100.863 51.6862 100.775 51.5918C100.691 51.4974 100.648 51.3786 100.648 51.2354C100.648 51.1605 100.663 51.0791 100.692 50.9912C100.565 51.0368 100.447 51.11 100.336 51.2109C100.229 51.3086 100.134 51.4323 100.053 51.582C99.9714 51.7318 99.9079 51.9059 99.8623 52.1045C99.8167 52.2998 99.7939 52.5179 99.7939 52.7588V54.4043H100.575V54.7949ZM106.229 54.7949C106.093 54.821 105.966 54.8372 105.849 54.8438C105.731 54.8503 105.639 54.8535 105.57 54.8535C105.398 54.8535 105.255 54.8389 105.141 54.8096C105.03 54.7835 104.942 54.7445 104.877 54.6924C104.812 54.6403 104.765 54.5768 104.735 54.502C104.706 54.4271 104.688 54.3441 104.682 54.2529H104.657C104.566 54.3799 104.468 54.4873 104.364 54.5752C104.26 54.6631 104.151 54.7331 104.037 54.7852C103.923 54.8372 103.806 54.8747 103.686 54.8975C103.568 54.9202 103.45 54.9316 103.329 54.9316C103.131 54.9316 102.953 54.904 102.797 54.8486C102.641 54.7965 102.509 54.7217 102.401 54.624C102.294 54.5264 102.213 54.4108 102.157 54.2773C102.102 54.1406 102.074 53.9909 102.074 53.8281C102.074 53.3757 102.296 53.0322 102.738 52.7979C103.184 52.5602 103.826 52.4333 104.662 52.417C104.665 52.2705 104.667 52.1387 104.667 52.0215C104.67 51.9043 104.672 51.7887 104.672 51.6748C104.672 51.3786 104.61 51.1719 104.486 51.0547C104.366 50.9342 104.174 50.874 103.91 50.874C103.734 50.874 103.576 50.8936 103.437 50.9326C103.3 50.9717 103.188 51.0238 103.1 51.0889C103.178 51.1637 103.235 51.2435 103.271 51.3281C103.31 51.4095 103.329 51.4909 103.329 51.5723C103.329 51.709 103.285 51.8229 103.197 51.9141C103.109 52.0052 102.989 52.0508 102.836 52.0508C102.771 52.0508 102.707 52.041 102.646 52.0215C102.584 52.002 102.53 51.971 102.484 51.9287C102.439 51.8864 102.401 51.8343 102.372 51.7725C102.346 51.7074 102.333 51.6325 102.333 51.5479C102.333 51.4144 102.369 51.2858 102.44 51.1621C102.515 51.0352 102.624 50.9229 102.768 50.8252C102.914 50.7275 103.095 50.6494 103.31 50.5908C103.528 50.5322 103.782 50.5029 104.071 50.5029C104.306 50.5029 104.512 50.5257 104.691 50.5713C104.874 50.6169 105.027 50.6934 105.15 50.8008C105.277 50.9049 105.372 51.0449 105.434 51.2207C105.499 51.3965 105.531 51.6146 105.531 51.875C105.531 51.9401 105.53 52.0475 105.526 52.1973C105.526 52.3438 105.525 52.5065 105.521 52.6855C105.518 52.8646 105.515 53.0469 105.512 53.2324C105.512 53.4147 105.512 53.5758 105.512 53.7158C105.512 53.859 105.515 53.9795 105.521 54.0771C105.528 54.1715 105.544 54.248 105.57 54.3066C105.596 54.362 105.635 54.4027 105.688 54.4287C105.74 54.4515 105.813 54.4629 105.907 54.4629C105.989 54.4629 106.096 54.4531 106.229 54.4336V54.7949ZM104.662 52.7832C104.307 52.793 104.021 52.8206 103.803 52.8662C103.585 52.9085 103.415 52.9704 103.295 53.0518C103.174 53.1299 103.093 53.2259 103.051 53.3398C103.008 53.4538 102.987 53.584 102.987 53.7305C102.987 53.9844 103.039 54.1748 103.144 54.3018C103.251 54.4255 103.397 54.4873 103.583 54.4873C103.684 54.4873 103.796 54.4661 103.92 54.4238C104.047 54.3815 104.166 54.3132 104.276 54.2188C104.387 54.1211 104.478 53.9941 104.55 53.8379C104.625 53.6816 104.662 53.488 104.662 53.2568V52.7832ZM108.305 54.4043H109.013V54.7949H106.693V54.4043H107.426V48.0908H106.693V47.7002H108.305V54.4043ZM108.52 52.5293L109.994 51.0254H109.276V50.6348H111.498V51.0254H110.521L109.374 52.2266L111.269 54.4043H111.864V54.7949H109.496V54.4043H110.155L108.52 52.5293ZM116.093 54.7949H115.409V48.0908H114.677V47.7002H116.288V51.1816H116.308C116.451 50.9505 116.636 50.7796 116.864 50.6689C117.095 50.5583 117.346 50.5029 117.616 50.5029C117.899 50.5029 118.158 50.555 118.393 50.6592C118.63 50.7633 118.835 50.9115 119.008 51.1035C119.18 51.2923 119.314 51.5218 119.408 51.792C119.506 52.0622 119.555 52.3617 119.555 52.6904C119.555 53.0387 119.501 53.3512 119.394 53.6279C119.289 53.9046 119.148 54.139 118.969 54.3311C118.79 54.5231 118.581 54.6712 118.344 54.7754C118.106 54.8796 117.855 54.9316 117.592 54.9316C117.328 54.9316 117.084 54.8747 116.859 54.7607C116.638 54.6436 116.454 54.458 116.308 54.2041H116.278L116.093 54.7949ZM118.588 52.7051C118.588 52.334 118.562 52.0312 118.51 51.7969C118.458 51.5592 118.383 51.3737 118.285 51.2402C118.191 51.1035 118.077 51.0107 117.943 50.9619C117.81 50.9131 117.662 50.8887 117.499 50.8887C117.278 50.8887 117.09 50.931 116.938 51.0156C116.785 51.1003 116.659 51.2207 116.562 51.377C116.467 51.5332 116.397 51.722 116.352 51.9434C116.309 52.1615 116.288 52.4072 116.288 52.6807C116.288 52.9606 116.308 53.2015 116.347 53.4033C116.389 53.6051 116.443 53.776 116.508 53.916C116.573 54.0527 116.648 54.1634 116.732 54.248C116.82 54.3294 116.908 54.3929 116.996 54.4385C117.087 54.4808 117.177 54.5101 117.265 54.5264C117.356 54.5394 117.437 54.5459 117.509 54.5459C117.665 54.5459 117.808 54.5215 117.938 54.4727C118.072 54.4238 118.186 54.3327 118.28 54.1992C118.378 54.0625 118.453 53.8753 118.505 53.6377C118.56 53.3968 118.588 53.0859 118.588 52.7051ZM124.521 54.7949C124.384 54.821 124.257 54.8372 124.14 54.8438C124.022 54.8503 123.93 54.8535 123.861 54.8535C123.689 54.8535 123.546 54.8389 123.432 54.8096C123.321 54.7835 123.233 54.7445 123.168 54.6924C123.103 54.6403 123.056 54.5768 123.026 54.502C122.997 54.4271 122.979 54.3441 122.973 54.2529H122.948C122.857 54.3799 122.759 54.4873 122.655 54.5752C122.551 54.6631 122.442 54.7331 122.328 54.7852C122.214 54.8372 122.097 54.8747 121.977 54.8975C121.859 54.9202 121.741 54.9316 121.62 54.9316C121.422 54.9316 121.244 54.904 121.088 54.8486C120.932 54.7965 120.8 54.7217 120.692 54.624C120.585 54.5264 120.504 54.4108 120.448 54.2773C120.393 54.1406 120.365 53.9909 120.365 53.8281C120.365 53.3757 120.587 53.0322 121.029 52.7979C121.475 52.5602 122.117 52.4333 122.953 52.417C122.956 52.2705 122.958 52.1387 122.958 52.0215C122.961 51.9043 122.963 51.7887 122.963 51.6748C122.963 51.3786 122.901 51.1719 122.777 51.0547C122.657 50.9342 122.465 50.874 122.201 50.874C122.025 50.874 121.868 50.8936 121.728 50.9326C121.591 50.9717 121.479 51.0238 121.391 51.0889C121.469 51.1637 121.526 51.2435 121.562 51.3281C121.601 51.4095 121.62 51.4909 121.62 51.5723C121.62 51.709 121.576 51.8229 121.488 51.9141C121.4 52.0052 121.28 52.0508 121.127 52.0508C121.062 52.0508 120.998 52.041 120.937 52.0215C120.875 52.002 120.821 51.971 120.775 51.9287C120.73 51.8864 120.692 51.8343 120.663 51.7725C120.637 51.7074 120.624 51.6325 120.624 51.5479C120.624 51.4144 120.66 51.2858 120.731 51.1621C120.806 51.0352 120.915 50.9229 121.059 50.8252C121.205 50.7275 121.386 50.6494 121.601 50.5908C121.819 50.5322 122.073 50.5029 122.362 50.5029C122.597 50.5029 122.803 50.5257 122.982 50.5713C123.165 50.6169 123.318 50.6934 123.441 50.8008C123.568 50.9049 123.663 51.0449 123.725 51.2207C123.79 51.3965 123.822 51.6146 123.822 51.875C123.822 51.9401 123.821 52.0475 123.817 52.1973C123.817 52.3438 123.816 52.5065 123.812 52.6855C123.809 52.8646 123.806 53.0469 123.803 53.2324C123.803 53.4147 123.803 53.5758 123.803 53.7158C123.803 53.859 123.806 53.9795 123.812 54.0771C123.819 54.1715 123.835 54.248 123.861 54.3066C123.887 54.362 123.926 54.4027 123.979 54.4287C124.031 54.4515 124.104 54.4629 124.198 54.4629C124.28 54.4629 124.387 54.4531 124.521 54.4336V54.7949ZM122.953 52.7832C122.598 52.793 122.312 52.8206 122.094 52.8662C121.876 52.9085 121.706 52.9704 121.586 53.0518C121.465 53.1299 121.384 53.2259 121.342 53.3398C121.299 53.4538 121.278 53.584 121.278 53.7305C121.278 53.9844 121.33 54.1748 121.435 54.3018C121.542 54.4255 121.688 54.4873 121.874 54.4873C121.975 54.4873 122.087 54.4661 122.211 54.4238C122.338 54.3815 122.457 54.3132 122.567 54.2188C122.678 54.1211 122.769 53.9941 122.841 53.8379C122.916 53.6816 122.953 53.488 122.953 53.2568V52.7832ZM126.596 54.4043H127.328V54.7949H124.984V54.4043H125.717V48.0908H124.984V47.7002H126.596V54.4043ZM129.452 54.4043H130.185V54.7949H127.841V54.4043H128.573V51.0254H127.841V50.6348H129.452V54.4043ZM129.013 49.2578C128.928 49.2578 128.85 49.2448 128.778 49.2188C128.71 49.1895 128.648 49.1488 128.593 49.0967C128.541 49.0446 128.5 48.9844 128.471 48.916C128.441 48.8444 128.427 48.7646 128.427 48.6768C128.427 48.5921 128.441 48.514 128.471 48.4424C128.503 48.3708 128.546 48.3089 128.598 48.2568C128.65 48.2048 128.712 48.1641 128.783 48.1348C128.855 48.1055 128.931 48.0908 129.013 48.0908C129.094 48.0908 129.171 48.1055 129.242 48.1348C129.314 48.1608 129.376 48.1999 129.428 48.252C129.483 48.304 129.525 48.3659 129.555 48.4375C129.584 48.5059 129.599 48.584 129.599 48.6719C129.599 48.7598 129.582 48.8395 129.55 48.9111C129.521 48.9827 129.48 49.0446 129.428 49.0967C129.376 49.1455 129.314 49.1846 129.242 49.2139C129.171 49.2432 129.094 49.2578 129.013 49.2578Z" fill="black"/>
</svg>
