<svg width="1440" height="1024" viewBox="0 0 1440 1024" fill="none" xmlns="http://www.w3.org/2000/svg">
<g clip-path="url(#clip0_310_171)">
<rect width="1440" height="1024" fill="white"/>
<rect width="1440" height="468" fill="url(#paint0_linear_310_171)"/>
<rect width="41.6194" height="437.912" transform="matrix(0.717005 -0.697068 -0.697068 -0.717005 420.254 253.554)" fill="#96808E"/>
<rect width="41.6194" height="437.912" transform="matrix(0.717005 -0.697068 -0.697068 -0.717005 420.254 253.554)" fill="#96808E"/>
<rect width="41.6194" height="437.912" transform="matrix(0.717005 -0.697068 -0.697068 -0.717005 420.254 253.554)" fill="#96808E"/>
<rect width="41.6194" height="514.457" transform="matrix(0.717005 -0.697068 -0.697068 -0.717005 686.832 489.492)" fill="#96808E"/>
<rect width="41.6194" height="514.457" transform="matrix(0.717005 -0.697068 -0.697068 -0.717005 686.832 489.492)" fill="#96808E"/>
<rect width="41.6194" height="514.457" transform="matrix(0.717005 -0.697068 -0.697068 -0.717005 686.832 489.492)" fill="#9A6689"/>
<rect width="41.6194" height="632.51" transform="matrix(0.717005 -0.697068 -0.697068 -0.717005 436.902 453.524)" fill="#96808E"/>
<rect width="41.6194" height="632.51" transform="matrix(0.717005 -0.697068 -0.697068 -0.717005 436.902 453.524)" fill="#96808E"/>
<rect width="41.6194" height="632.51" transform="matrix(0.717005 -0.697068 -0.697068 -0.717005 436.902 453.524)" fill="#96808E"/>
<rect width="41.6194" height="497.094" transform="matrix(0.717005 -0.697068 -0.697068 -0.717005 541.967 221.431)" fill="#96808E"/>
<rect width="41.6194" height="497.094" transform="matrix(0.717005 -0.697068 -0.697068 -0.717005 541.967 221.431)" fill="#96808E"/>
<rect width="41.6194" height="497.094" transform="matrix(0.717005 -0.697068 -0.697068 -0.717005 541.967 221.431)" fill="#9A6689"/>
<rect width="41.6194" height="497.094" transform="matrix(0.694541 0.719453 0.719453 -0.694541 833 207.252)" fill="#96808E"/>
<rect width="41.6194" height="497.094" transform="matrix(0.694541 0.719453 0.719453 -0.694541 833 207.252)" fill="#96808E"/>
<rect width="41.6194" height="497.094" transform="matrix(0.694541 0.719453 0.719453 -0.694541 833 207.252)" fill="#9A6689"/>
<rect width="41.6194" height="348.69" transform="matrix(0.717005 -0.697068 -0.697068 -0.717005 702.58 328.861)" fill="#96808E"/>
<rect width="41.6194" height="348.69" transform="matrix(0.717005 -0.697068 -0.697068 -0.717005 702.58 328.861)" fill="#96808E"/>
<rect width="41.6194" height="348.69" transform="matrix(0.717005 -0.697068 -0.697068 -0.717005 702.58 328.861)" fill="#96808E"/>
<rect width="38.9058" height="450.372" transform="matrix(0.676569 0.736379 0.736379 -0.676569 723.244 429.708)" fill="#96808E"/>
<rect width="38.9058" height="450.372" transform="matrix(0.676569 0.736379 0.736379 -0.676569 723.244 429.708)" fill="#96808E"/>
<rect width="38.9058" height="450.372" transform="matrix(0.676569 0.736379 0.736379 -0.676569 723.244 429.708)" fill="#9A6689"/>
<rect width="40.9068" height="389.54" transform="matrix(0.693784 0.720183 0.720183 -0.693784 678.279 304.257)" fill="#96808E"/>
<rect width="40.9068" height="389.54" transform="matrix(0.693784 0.720183 0.720183 -0.693784 678.279 304.257)" fill="#96808E"/>
<rect width="40.9068" height="389.54" transform="matrix(0.693784 0.720183 0.720183 -0.693784 678.279 304.257)" fill="#96808E"/>
<rect width="41.8218" height="423.476" transform="matrix(0.673622 0.739075 0.739075 -0.673622 962 254.263)" fill="#96808E"/>
<rect width="41.8218" height="423.476" transform="matrix(0.673622 0.739075 0.739075 -0.673622 962 254.263)" fill="#96808E"/>
<rect width="41.8218" height="423.476" transform="matrix(0.673622 0.739075 0.739075 -0.673622 962 254.263)" fill="#96808E"/>
<rect width="37.0126" height="673.536" transform="matrix(0.673622 0.739075 0.739075 -0.673622 917.188 422.709)" fill="#96808E"/>
<rect width="37.0126" height="673.536" transform="matrix(0.673622 0.739075 0.739075 -0.673622 917.188 422.709)" fill="#96808E"/>
<rect width="37.0126" height="673.536" transform="matrix(0.673622 0.739075 0.739075 -0.673622 917.188 422.709)" fill="#96808E"/>
<rect width="37.0126" height="346.66" transform="matrix(-0.674461 0.73831 0.73831 0.674461 1203.96 203)" fill="#96808E"/>
<rect width="37.0126" height="346.66" transform="matrix(-0.674461 0.73831 0.73831 0.674461 1203.96 203)" fill="#96808E"/>
<rect width="37.0126" height="346.66" transform="matrix(-0.674461 0.73831 0.73831 0.674461 1203.96 203)" fill="#96808E"/>
<rect width="37.0126" height="346.66" transform="matrix(-0.661114 0.750285 0.750285 0.661114 1153.64 230.092)" fill="#96808E"/>
<rect width="37.0126" height="346.66" transform="matrix(-0.661114 0.750285 0.750285 0.661114 1153.64 230.092)" fill="#96808E"/>
<rect width="37.0126" height="346.66" transform="matrix(-0.661114 0.750285 0.750285 0.661114 1153.64 230.092)" fill="#96808E"/>
<rect width="37.0126" height="346.66" transform="matrix(-0.674461 0.73831 0.73831 0.674461 1087.96 288)" fill="#96808E"/>
<rect width="37.0126" height="346.66" transform="matrix(-0.674461 0.73831 0.73831 0.674461 1087.96 288)" fill="#96808E"/>
<rect width="37.0126" height="346.66" transform="matrix(-0.674461 0.73831 0.73831 0.674461 1087.96 288)" fill="#96808E"/>
<rect width="39.1543" height="394.583" transform="matrix(-0.713222 -0.700938 -0.700938 0.713222 327.504 300.445)" fill="#96808E"/>
<rect width="39.1543" height="394.583" transform="matrix(-0.713222 -0.700938 -0.700938 0.713222 327.504 300.445)" fill="#96808E"/>
<rect width="39.1543" height="394.583" transform="matrix(-0.713222 -0.700938 -0.700938 0.713222 327.504 300.445)" fill="#96808E"/>
<rect width="37.0126" height="384.892" transform="matrix(-0.711153 -0.703037 -0.703037 0.711153 266.914 245.021)" fill="#96808E"/>
<rect width="37.0126" height="384.892" transform="matrix(-0.711153 -0.703037 -0.703037 0.711153 266.914 245.021)" fill="#96808E"/>
<rect width="37.0126" height="384.892" transform="matrix(-0.711153 -0.703037 -0.703037 0.711153 266.914 245.021)" fill="#868096"/>
<rect width="37.0126" height="346.66" transform="matrix(-0.703062 -0.711129 -0.711129 0.703062 230.541 212.321)" fill="#96808E"/>
<rect width="37.0126" height="346.66" transform="matrix(-0.703062 -0.711129 -0.711129 0.703062 230.541 212.321)" fill="#96808E"/>
<rect width="37.0126" height="346.66" transform="matrix(-0.703062 -0.711129 -0.711129 0.703062 230.541 212.321)" fill="#96808E"/>
<rect y="427" width="1440" height="597" fill="#FCFCFC"/>
<path d="M709.097 181.29L481.442 -45.8117L942.335 -40.0725L709.097 181.29Z" fill="#B19797"/>
<path d="M709.097 152.29L481.442 -74.8117L942.335 -69.0725L709.097 152.29Z" fill="#855454"/>
<path d="M305.5 354L383.875 426H227.125L305.5 354Z" fill="#836060"/>
<path d="M1077.5 358L1155.88 430H999.125L1077.5 358Z" fill="#836060"/>
<path d="M1242.29 218.67L1438.33 73.4179L1445.77 353.315L1242.29 218.67Z" fill="#8A6060"/>
<path d="M1242.29 218.67L1438.33 73.4179L1445.77 353.315L1242.29 218.67Z" fill="#8A6060"/>
<path d="M169.017 200.282L2.50286 328.658L2.53102 71.8688L169.017 200.282Z" fill="#8A6060"/>
<path d="M169.017 200.282L2.50286 328.658L2.53102 71.8688L169.017 200.282Z" fill="#8A6060"/>
</g>
<defs>
<linearGradient id="paint0_linear_310_171" x1="720" y1="0" x2="720" y2="468" gradientUnits="userSpaceOnUse">
<stop stop-color="#DC9DF2"/>
<stop offset="0.422859" stop-color="#B95DD9" stop-opacity="0.577141"/>
<stop offset="0.64971" stop-color="#65536B" stop-opacity="0.35029"/>
<stop offset="1" stop-color="#D0D0D0" stop-opacity="0"/>
</linearGradient>
<clipPath id="clip0_310_171">
<rect width="1440" height="1024" fill="white"/>
</clipPath>
</defs>
</svg>
